<svg xmlns="http://www.w3.org/2000/svg" width="1181" height="1181" viewBox="0 0 1181 1181">
  <defs>
    <style>
      .cls-1 {
        fill: red;
      }

      .cls-1, .cls-2, .cls-3, .cls-4 {
        fill-rule: evenodd;
      }

      .cls-2 {
        fill: #0fff16;
      }

      .cls-3 {
        fill: #1b48fc;
      }

      .cls-4 {
        fill: #0d0f0f;
      }
    </style>
  </defs>
  <path id="P_" data-name="P " class="cls-1" d="M583.084,784.624V615.862h48.523q67.134,0,94.6-13.275t45.776-46.082q18.31-32.8,18.311-81.329,0-53.4-21.21-87.281t-53.863-44.25q-20.45-6.408-86.975-6.409H509.231V784.624h73.853Zm36.1-371.7q46.492,0,60.868,5.2t24.167,20.5Q714,453.915,714,476.244q0,22.029-9.484,37.169T680.2,534.366q-14.835,5.814-56.128,5.812H583.084V412.92h36.1Z"/>
  <path id="P" class="cls-2" d="M590.249,784.3V615.534h48.523q67.134,0,94.6-13.275t45.777-46.081q18.311-32.8,18.31-81.33,0-53.4-21.209-87.28T722.39,343.317q-20.45-6.408-86.975-6.408H516.4V784.3h73.853Zm36.1-371.7q46.493,0,60.869,5.2t24.166,20.494q9.785,15.3,9.789,37.627,0,22.031-9.484,37.17t-24.319,20.952q-14.833,5.815-56.128,5.813H590.249V412.592h36.1Z"/>
  <path id="P_2" data-name="P " class="cls-3" d="M597.777,785.052V616.289H646.3q67.134,0,94.605-13.275t45.776-46.081q18.31-32.8,18.311-81.33,0-53.4-21.21-87.28t-53.863-44.25q-20.45-6.409-86.975-6.409H523.924V785.052h73.853Zm36.1-371.7q46.491,0,60.868,5.2t24.166,20.494q9.786,15.3,9.79,37.628,0,22.029-9.484,37.169t-24.319,20.952q-14.835,5.815-56.129,5.813H597.777V413.348h36.1Z"/>
  <path id="p-2" data-name="p" class="cls-4" d="M605.245,784.728V615.966h48.523q67.134,0,94.6-13.275t45.777-46.082q18.31-32.8,18.31-81.329,0-53.4-21.21-87.28t-53.863-44.251q-20.449-6.408-86.975-6.409H531.392V784.728h73.853Zm36.1-371.7q46.492,0,60.869,5.2t24.166,20.5q9.784,15.3,9.789,37.627,0,22.029-9.484,37.169T702.362,534.47q-14.834,5.814-56.128,5.812H605.245V413.024h36.1Z"/>
</svg>
