<svg xmlns="http://www.w3.org/2000/svg" width="1181" height="1181" viewBox="0 0 1181 1181">
  <defs>
    <style>
      .cls-1, .cls-6 {
        fill: red;
      }

      .cls-1, .cls-2, .cls-3, .cls-4, .cls-5 {
        fill-rule: evenodd;
      }

      .cls-2 {
        fill: #070708;
      }

      .cls-3, .cls-7 {
        fill: #0fff16;
      }

      .cls-4, .cls-8 {
        fill: #1b48fc;
      }

      .cls-5 {
        fill: #0d0f0f;
      }

      .cls-8 {
        mix-blend-mode: luminosity;
      }
    </style>
  </defs>
  <path id="P_" data-name="P " class="cls-1" d="M583.084,784.624V615.862h48.523q67.134,0,94.6-13.275t45.776-46.082Q790.3,523.7,790.3,475.176q0-53.4-21.21-87.28t-53.863-44.251q-20.45-6.408-86.975-6.409H509.231V784.624h73.853Zm36.1-371.7q46.492,0,60.869,5.2t24.166,20.5Q714,453.915,714,476.244q0,22.03-9.484,37.169T680.2,534.366q-14.835,5.814-56.128,5.812H583.084V412.92h36.1Z"/>
  <path id="PIXOVER" class="cls-2" d="M282.03,931.563v-40.5h14.136q14.721,0,22.485-1.538a31.431,31.431,0,0,0,11.243-5.091,29.436,29.436,0,0,0,9.118-10.583q3.588-6.738,3.589-16.626,0-12.816-6.225-20.911a28.155,28.155,0,0,0-15.455-10.51q-6.006-1.611-25.781-1.611H260.35V931.563h21.68ZM292.5,842.354q11.718,0,15.6.732a15,15,0,0,1,8.716,4.761,13.874,13.874,0,0,1,3.442,9.668,14.433,14.433,0,0,1-2.453,8.349,14.243,14.243,0,0,1-6.775,5.274q-4.323,1.686-17.139,1.684H282.03V842.354H292.5Zm96.416,89.209V824.19H367.24V931.563h21.679Zm43.243,0,23.877-37.134,23.8,37.134H505.99L469.3,876.338l33.4-52.148H477.572l-21.094,34.5-21.533-34.5H409.6l33.252,51.342-36.694,56.031h26Zm102.2-12.781q14.135,14.611,38.086,14.612,23.656,0,37.793-14.685t14.135-40.686q0-26.22-14.245-40.943t-37.976-14.721a58.946,58.946,0,0,0-23.145,4.248,41.8,41.8,0,0,0-13.879,9.668,50.531,50.531,0,0,0-10,14.721q-4.908,11.135-4.907,27.539Q520.228,904.171,534.364,918.782Zm16.406-68.7q8.2-9.191,21.606-9.192t21.5,9.082q8.092,9.082,8.093,27.539,0,18.677-8.313,28.015a28.957,28.957,0,0,1-42.663-.073q-8.424-9.411-8.423-27.649Q542.567,859.274,550.77,850.081Zm148.564,81.482L737.787,824.19h-23L688.5,903.657,661.322,824.19H637.811L676.19,931.563h23.144Zm138.677,0V913.472H778.026V884.248h53.906V866.157H778.026v-23.8H835.96V824.19H756.346V931.563h81.665Zm47.637,0V886.738h4.394q7.471,0,10.914,1.209a16.657,16.657,0,0,1,6.518,4.468q3.076,3.26,11.426,15.783l15.674,23.365H960.5l-13.11-20.948q-7.764-12.524-12.341-17.431a50.627,50.627,0,0,0-11.609-9.009q14.135-2.049,21.24-9.924t7.1-19.959a30.945,30.945,0,0,0-4.688-16.919,24.675,24.675,0,0,0-12.488-10.29q-7.8-2.894-25.012-2.893h-45.63V931.563h21.68Zm0-89.209h16.919q13.183,0,15.82.366a13.284,13.284,0,0,1,8.167,4.211,12.882,12.882,0,0,1,2.893,8.753,13.985,13.985,0,0,1-2.2,8.056,11.666,11.666,0,0,1-6.08,4.541q-3.882,1.319-19.482,1.319h-16.04V842.354Z"/>
  <path id="P" class="cls-3" d="M590.249,784.3V615.534h48.523q67.134,0,94.6-13.275t45.777-46.081q18.311-32.8,18.31-81.33,0-53.4-21.209-87.28t-53.864-44.25q-20.45-6.409-86.975-6.409H516.4V784.3h73.853Zm36.1-371.705q46.491,0,60.868,5.2t24.166,20.494q9.785,15.3,9.789,37.627,0,22.031-9.484,37.17t-24.319,20.952q-14.833,5.815-56.128,5.813H590.249V412.592h36.1Z"/>
  <path id="P_2" data-name="P " class="cls-4" d="M597.777,785.052V616.29H646.3q67.132,0,94.6-13.276t45.776-46.081q18.31-32.8,18.311-81.33,0-53.4-21.21-87.28t-53.863-44.25q-20.45-6.409-86.975-6.409H523.924V785.052h73.853Zm36.1-371.7q46.493,0,60.868,5.2t24.167,20.494q9.785,15.3,9.789,37.628,0,22.029-9.484,37.169t-24.319,20.952q-14.835,5.815-56.129,5.813H597.777V413.348h36.1Z"/>
  <path id="p-2" data-name="p" class="cls-5" d="M605.245,784.728V615.966h48.523q67.134,0,94.6-13.275t45.777-46.082q18.31-32.8,18.31-81.329,0-53.4-21.21-87.28t-53.863-44.251q-20.449-6.408-86.975-6.409H531.392V784.728h73.853Zm36.1-371.7q46.492,0,60.869,5.2t24.166,20.5q9.784,15.3,9.789,37.627,0,22.031-9.484,37.169T702.362,534.47q-14.834,5.814-56.128,5.812H605.245V413.024h36.1Z"/>
  <rect class="cls-6" x="260" y="945" width="255" height="20"/>
  <rect class="cls-7" x="516" y="945" width="225" height="20"/>
  <rect class="cls-8" x="741" y="945" width="220" height="20"/>
</svg>
