<svg xmlns="http://www.w3.org/2000/svg" width="70" height="70" viewBox="0 0 800 800">
  <defs>
    <style>
      .cls-1, .cls-2 {
        fill: none;
        stroke: #fff;
      }

      .cls-1 {
        stroke-width: 9px;
      }

      .cls-2 {
        stroke-width: 5px;
      }

      .cls-2, .cls-3 {
        fill-rule: evenodd;
      }

      .cls-3 {
        fill: #fff;
      }
    </style>
  </defs>
  <circle class="cls-1" cx="400" cy="338" r="193"/>
  <path id="Shape_285_1" data-name="Shape 285 1" class="cls-2" d="M362.483,298.178a2.045,2.045,0,0,1-.157-1.454c0.267-.627.579-1.412,0.791-1.827a4.91,4.91,0,0,0,.31-1.935,9.94,9.94,0,0,0-.944-2.233,8.45,8.45,0,0,0-1.209-2.294,14.191,14.191,0,0,0-2-1.611,5.182,5.182,0,0,0-2.849-.835,19.481,19.481,0,0,0-3.889.472c-1.419.363-3.209,0.363-3.891,0.935a7.546,7.546,0,0,0-1.424,1.661,4.333,4.333,0,0,0-.84,1.984c0,0.727-.419,1.982-0.419,2.554s-0.11,1.514-.154,2.029c-0.06.52,0.1,3.645-.06,4.169a8.861,8.861,0,0,0,.1,2.663c0.11,0.3.475,1.245,0.694,1.713a3.08,3.08,0,0,1,.361,1.506,4.59,4.59,0,0,1-.156,1.987,21.984,21.984,0,0,1-1.845,1.554,9.916,9.916,0,0,1-3.211,1.831,30.928,30.928,0,0,0-3.415,1.35,32.107,32.107,0,0,1-4.9,1.926c-1.946.529-2.47,0.529-2.892,0.68a2.3,2.3,0,0,0-1.211,1.3c-0.369.778-.527,1.35-1.047,2.653a13.742,13.742,0,0,0-.906,2.4c-0.052.468-.839,3.069-0.884,3.6a2.667,2.667,0,0,0,.214,1.133,4.172,4.172,0,0,1,.253,1.623,23.663,23.663,0,0,1-1.146,3.026c-0.271.624-.745,1.086-0.909,1.61a7.377,7.377,0,0,0-.26,1.766,5.089,5.089,0,0,0,.481,1.883,1.422,1.422,0,0,1-.107,1.61,15.349,15.349,0,0,0-1.951,2.917,7.236,7.236,0,0,0,0,1.459,6.192,6.192,0,0,0,.372,1.879,6.3,6.3,0,0,1,.571,2.186,2.474,2.474,0,0,0,.586,1.723,11.025,11.025,0,0,1,1.261,1.356,9.817,9.817,0,0,0,1.214,1.033c0.789,0.788,2.153,2.191,2.313,2.459a1.416,1.416,0,0,0,.786.662c0.37,0.112.9-.307,1,0.273a6.467,6.467,0,0,1-.213,2.026c-0.157,1.047-1.208,8.436-1.473,9.692a12.754,12.754,0,0,0-.472,2.709c-0.057,1.138-.317,3.38-0.365,4.32s-0.844,3.852-.9,4.423a1.819,1.819,0,0,0,.317,1.827c0.635,0.528,1.845.831,2.528,1.723a4.754,4.754,0,0,0,1.523,1.558c0.42,0.161-.372.732-0.372,1.2a38.829,38.829,0,0,0,.425,4.589,16.2,16.2,0,0,0,.692,2.492c0.309,0.68.571,0.415,0.354,1.411-0.2.988-1.354,6.563-1.411,7.191s-0.109,1.448-.109,1.448a5.687,5.687,0,0,1,.638.624c0.42,0.472.735,0.788,0.528,1a1.5,1.5,0,0,0-.692,1.095,3.571,3.571,0,0,0,.164,1.662c0.2,0.727.528,0,.735,1.562s0.147,5.217.305,5.68a3.019,3.019,0,0,0,.584,1.614c0.694,0.986.894,0.836,0.894,1.662a3.759,3.759,0,0,1-.152,1.572,1.342,1.342,0,0,0-.478.878,8.115,8.115,0,0,0,.108,2.247,9.867,9.867,0,0,1,.214,1.823c0,0.835.416,0.363,0,1.453s-2.057,3.65-2.057,5.472a12.553,12.553,0,0,0,.477,4.159c0.41,1.464.41,2.138,1.106,2.611a4.545,4.545,0,0,0,2.58.679c1.363,0.1,2.785-.052,3.311-0.623a5.346,5.346,0,0,0,1.525-2.238c0.106-.783.529-1.1,0.318-2.242s0.048-1.926-.212-2.247a2.889,2.889,0,0,1-.741-1.455c-0.045-.571-0.045-1-0.045-1.618a15.651,15.651,0,0,1,.26-1.979c0.047-.42,1.736-4.257,1.886-5.207a26.96,26.96,0,0,0,.329-3.332,16.545,16.545,0,0,1,.464-2.654,8.125,8.125,0,0,0,.165-2.35,16.066,16.066,0,0,1,.365-2.961,10.367,10.367,0,0,0,.213-1.415,20.55,20.55,0,0,0-.529-2.229s0.469-1.1.738-1.671,0.63-1.256.737-1.568,1-1.77,1.212-2.289,1.79-4.112,1.84-4.367,0.469-2.091.634-2.657c0.158-.581.675-2.767,0.675-2.767l0.427,0.42s0.2,1.926.2,2.6a5.818,5.818,0,0,0,0,2.342,12.357,12.357,0,0,1,.689,2.559c0.107,0.982.315,0.307,0.417,2.082s0.162,1.765.213,2.7,0,0.788.055,1.988-0.268,0,.1,1.879c0.365,1.863.522,3.012,0.834,3.166,0.329,0.161.742,0.322,0.742,0.322a7.878,7.878,0,0,0-.1,1.251,2.85,2.85,0,0,1-.156,1.388,3.313,3.313,0,0,0-.207,1.265,3.1,3.1,0,0,0-.067.982,1.875,1.875,0,0,1,.067,1,4.6,4.6,0,0,0-.112,1.09,3.047,3.047,0,0,1,.045,1.144,4.168,4.168,0,0,0-.15,1.151c0,0.987.313,0.934,0.269,1.671s-0.581,1.09-.581,1.714-0.263,5.108-.263,5.938,0,2.918.1,4.377,0.26,3.12.32,3.842a3.075,3.075,0,0,1-.537,2.1,3.574,3.574,0,0,0-.994,1.667,11.012,11.012,0,0,0,.155,2.082c0.107,0.212.587,0.42,0.894,0.878s1.154,0.84,1.1,1.411a5.818,5.818,0,0,1-.415,1.568c-0.158.415-.158,0.311-0.267,0.623a11.423,11.423,0,0,0-.1,1.869,0.946,0.946,0,0,0,.209.883,3.835,3.835,0,0,1,.892.369s0.522-.459.687,0.108a6.984,6.984,0,0,1,.1,2.5,4.385,4.385,0,0,0-.268,1.765,5.587,5.587,0,0,0,1.272,1.883,8.976,8.976,0,0,0,2.837,1.194,25.246,25.246,0,0,0,2.847.156,7.449,7.449,0,0,0,2.363-.518c0.421-.209.782,0.056,1.056-0.832,0.257-.883.572-0.883,0.522-1.662s-0.1-1.259-.474-1.364-0.47-.307-0.532-0.986a2.378,2.378,0,0,0-.473-1.356c-0.309-.565-0.791-1.3-1.208-1.926a7.41,7.41,0,0,1-.737-1.463,5.073,5.073,0,0,1-.577-1.449c-0.1-.576-0.413-0.212-0.052-1.2a20.765,20.765,0,0,1,1.476-2.4c0.258-.56.581-1.245,0.789-1.76a1.486,1.486,0,0,0,.157-1.459,15.16,15.16,0,0,1-1.159-1.614c-0.045-.27.63-10.532,0.63-11.519a23.778,23.778,0,0,0,.052-3.338c-0.162-.721.735-1.817,0.735-2.227a15.486,15.486,0,0,0,.057-1.615,12.945,12.945,0,0,1,.055-1.412,8.049,8.049,0,0,1,0-2.294c0.212-.416.847-0.676,0.847-1.038a2.1,2.1,0,0,0-.108-1.049,19.927,19.927,0,0,1-.117-4.315c0.117-.576.742-0.268,0.742-1.156s0.272-1.039.272-2.082-0.12-2.021-.12-2.658c0-.619,1.528-17.7,1.481-18.477s-0.107-1.255-.107-1.255-0.366-.785.367-0.053a16.9,16.9,0,0,1,1.264,1.454c0.636,0.732,1.154.987,1.368,1.261,0.212,0.255.737,0.094,0.787-.58a3.9,3.9,0,0,0-.207-1.662,9.683,9.683,0,0,1-.318-2.867v-2.667c0-.716.11-2.03,0.155-2.7,0.06-.685.163-6.1,0.163-7.194s-0.048-2.4-.1-2.97-0.32-1.973-.32-2.393a2.075,2.075,0,0,0-.157-1.568,2.866,2.866,0,0,1-.687-0.726,2.932,2.932,0,0,1-.472-1.2,16.766,16.766,0,0,1-.209-2.03,6.024,6.024,0,0,1,.257-1.775c0.164-.254.057-0.675,0.477-0.254a2.409,2.409,0,0,1,.791,1.713c0,0.741-.267.679,0,1.4a5.582,5.582,0,0,0,.63,1.459c0.477,0.84.527,0.84,0.794,1.411s0.37,1.153.737,2.035a8.873,8.873,0,0,1,.572,1.926,4.655,4.655,0,0,1,.315,1.563,3.063,3.063,0,0,0,0,1.2,7.375,7.375,0,0,0,.472,1.3c0.217,0.472,0,.165.264,0.878a22.773,22.773,0,0,1,.8,2.776,0.972,0.972,0,0,0,.054,1.038c0.366,0.727.471,0.053,0.735,1.143a12.283,12.283,0,0,1-.11,3.39s-0.2,1.25.062,1.3,0.373,1.049.626,1.2a14.631,14.631,0,0,0,1.58.208c0.313,0.108,1.047.316,1.047,0.316s-0.215.675,0,.722a7.26,7.26,0,0,0,1.366-.151,1.633,1.633,0,0,0,1.473-.675c0.324-.628,1-0.826.842-1.3a13.434,13.434,0,0,0-.842-1.672,1.083,1.083,0,0,1,0-1.354c0.375-.369.747-0.208,0.8-0.883a2.35,2.35,0,0,0-.156-1.1,2.291,2.291,0,0,1-.474-1.09c-0.11-.676-0.682-1.927-0.9-2.974a8.234,8.234,0,0,1-.427-2.394,5.94,5.94,0,0,0,0-2.233,6.186,6.186,0,0,0-.622-1.884c-0.257-.566-0.787-8.534-1.152-9.168a17.133,17.133,0,0,1-1.058-3.488,4.364,4.364,0,0,0-.115-1.817c-0.3-.945-0.3-0.119-0.462-0.369a3.068,3.068,0,0,1,.16-1.147,1.426,1.426,0,0,0,0-.935,4.131,4.131,0,0,0-.642-0.467s-0.047-.519-0.1-0.991-0.26-1.36-.26-1.36a0.811,0.811,0,0,1-.534-0.623c0-.416.377-0.873,0.43-1.507a9.988,9.988,0,0,0-.372-2.761,3.293,3.293,0,0,0-.942-1.51,3.427,3.427,0,0,1-.422-2.3,14.682,14.682,0,0,0,.052-2.181,15.31,15.31,0,0,0-.474-2.507,7.3,7.3,0,0,1-.315-1.458,2.313,2.313,0,0,1,.157-1.559,2.824,2.824,0,0,0,.632-1.415c0.267-1.086-.37-3.843-0.52-4.476-0.171-.627-0.219-1.874-0.588-2.03s-1.894-.986-3-1.562-1.63-1.667-2.577-2.025a7.616,7.616,0,0,1-2.578-1.408,2.3,2.3,0,0,0-1.843-.632,3.467,3.467,0,0,1-1.733-.566,5.174,5.174,0,0,1-1.736-1.567,12.572,12.572,0,0,0-.949-1.4s0.315-2.4.315-2.761a5.437,5.437,0,0,1,.417-1.308,3.217,3.217,0,0,0,.689-0.987,0.462,0.462,0,0,1,.32-0.368,1.356,1.356,0,0,0,.944-0.311,9.541,9.541,0,0,1,.944-1.5,4.907,4.907,0,0,0,.627-1.313,11.323,11.323,0,0,0,.639-1.662,4.877,4.877,0,0,0-.572-1.148Z"/>
  <path id="Shape_282_1" data-name="Shape 282 1" class="cls-2" d="M444.88,377.532c-0.126-6.822,3.189-9.833,5.991-14.015,3.424-5.116,7.238-11.225,8.082-18.642H459.4v2.379c1.1,4.053-1.279,7.9-.594,10.445-3.552,3.217-3.562,17.132-2.1,23.41,2.422,10.431,5.4,21.839,3.291,33.56q0.072,2.393.147,4.778c-0.708,2.773-2.162,6.5-2.985,9.543-0.15.99-.308,1.986-0.453,2.985-0.678,1.327-2.218,1.784-2.7,3.578a11.481,11.481,0,0,0,.3,5.962c-0.053.8-.107,1.594-0.151,2.394-0.058,4.108,2.044,3.926,5.984,3.874,2.122,4.426,4.409,1.294,6.74,3.281,0.245,1.644.5,3.279,0.748,4.924a17.245,17.245,0,0,0,7.783-1.5c0.042-2.572-1.546-4.328-1.946-6.411,0.105-.946.2-1.891,0.305-2.836-0.315-1.821-1-3.737-1.345-5.213,0.088-1.7.192-3.385,0.287-5.075q-0.821-7.9-1.647-15.807c-0.039-1.252,1.107-2.156,1.5-2.983q0.386-1.724.75-3.439,2.172-2.232,4.343-4.471,2.7-8.424,5.4-16.85c2.122-.612,4.8-0.85,6.434-1.941a27.857,27.857,0,0,0-2.244-10.6c0.091-2.038.192-4.067,0.289-6.106q0.089-5.748.16-11.488-0.151-10.363-.3-20.73h0.447c0.692,6.421,5.763,14.458,9.13,18.641,1.744,2.167,5.132,3.953,5.987,6.86,0.364,1.224-.351,2.368-0.449,3.132-0.056.436,0.362,7.428,0.449,7.757,1.682-.07,3.27.433,5.539,0a31.6,31.6,0,0,0,1.5-5.518c-2.076-3.58-4.852-7.43-6.584-11.332q-1.51-4.263-3-8.5c-1.581-3.6-3.855-6.831-5.388-10.741-2.448-6.255-2.833-14.569-6.583-19.533,0.2-.711-0.117-1.131.445-1.5,0.048,0.105.1,0.2,0.145,0.3-0.608-5.013-2.717-8.258-4.036-12.22-1.72-5.146-1.268-10.545-5.246-13.283-6.839-4.715-16.28,1.723-15.265,8.952a3.891,3.891,0,0,0-1.642,1.643c1.232,0.753.568,3.771,0.146,5.066a62.517,62.517,0,0,1-4.936,12.08c-2.957,5.258-3.214,12.8-5.093,19.536-1.059,3.8-3.023,6.677-4.341,10-2.323,5.855-3.064,12.409-5.69,17.6-0.9,1.769-1.211,3.449-2.246,5.216-2.1,3.623-4.49,4.162-.594,8.354-0.149.349-.309,0.691-0.449,1.044,1.75-.219,3.811-0.9,5.539-0.449,0.413-1.322,1.3-1.776,2.241-2.539-0.123-1.6-1.058-2.545-1.794-3.577H444.88Zm20.061-72.488-1.2-.29c0.146-.2.3-0.4,0.449-0.6,0.2-.043.394-0.1,0.6-0.151v0.3C464.845,304.554,464.888,304.8,464.941,305.044Zm0,0.308a1.561,1.561,0,0,1-1.05,1.337h-0.146v-1.337h1.2Zm40.272,67.263a4.212,4.212,0,0,1,.6,2.381,3.985,3.985,0,0,1-1.5,1.049V375.9c0.253-.881.2-2.651,0.752-3.283h0.151Zm-41.922,65.621c0.408,1.445.8,2.886,1.2,4.321h-0.146c-0.2-.145-0.4-0.3-0.6-0.441C463.384,441.324,462.143,439.06,463.291,438.236Z"/>
  <path id="Shape_284_1" data-name="Shape 284 1" class="cls-2" d="M523.241,338.005c-2.725-.051-6.775,1.219-7.411,3-0.436,1.213.436,3.059,0.075,4.2-0.321.463-.737,0.6-1.058,1.134a13.306,13.306,0,0,0,1.058,1.716c-0.026.552-.052,1.1-0.075,1.654q0.453,2.094.907,4.2c0.507,1.464,1.905,2,1.436,4.574-0.591.116-1.753,1.278-2.419,1.647-1.542.866-3.928,1.143-4.915,2.557-1.811,2.561-.937,9.16-1.74,12.521a2.074,2.074,0,0,0-1.435.073c-0.161.976-.683,0.74-1.212,1.272,0.135,1-.311,1.3-0.454,2.252,0.368,0.709,1.044,1.446,1.286,2.1,0.374,1,.225,1.969.983,2.549,3.542,2.7,4.2-3.8,4.841-5.85,0.378-.973.754-1.943,1.134-2.926,0.1,0.032.2,0.047,0.3,0.073,2.155,1.42,1.883,3.975,3.553,5.7a7.107,7.107,0,0,0-.15,2.328c0.377,0.466,1.2.573,1.511,1.049,0.8,1.581-2.185,3.272-2.645,4.648a48.032,48.032,0,0,0-.908,6,5.468,5.468,0,0,1,.227,2.555c-0.457,2.27-1.9,4.488-1.514,6.743,1.621,0.366,1.721.955,3.63,0.753q0.492,0.563.984,1.125c0.151,0.822.3,1.654,0.454,2.475a23.483,23.483,0,0,1,2.192,5.62c0.264,2.079-2.013,3.83-.834,6.832a19.413,19.413,0,0,0,2.648,3.9c0.862,1.225.876,3.119,1.816,4.353,1.025,1.332,2.591,2.24,3.554,3.673a13.5,13.5,0,0,1,1.889,4.426c0.456,0.7.909,1.392,1.363,2.1,0.218,0.555-.151.728,0,1.421,0.276,0.457.556,0.9,0.832,1.351v1.953q0.377,0.9.756,1.8v2.847c0.227,0.828.452,1.651,0.679,2.476-0.638,1.257-2.189,2.328-1.814,3.978,1.633,1.229,5.4,1.641,7.409.441a4.369,4.369,0,0,1,.61-1.713c0.942-.347,3.2-1.519,3.476-2.479s-2.294-6.861-2.723-7.2c-0.226.069-.454,0.152-0.679,0.227-0.627-1.351-.556-3.588-1.136-4.949-0.435-1.026-1.64-1.744-1.967-2.7-0.545-1.6-.4-3-0.982-4.35q-1.1-2.1-2.194-4.2-0.756-.963-1.51-1.95c-0.1-1.046-.2-2.094-0.3-3.146-0.393-1.534-2.548-6.222-1.816-8.25,0.782-.778,1.564-1.55,2.348-2.324q1.814-2.7,3.626-5.4l0.382,0.075a2.67,2.67,0,0,0,.375,1.5h0.3c0.109-1.172,1.039-2.284,1.437-3.147q0.718-2.216,1.438-4.429c0.285-1.487-.9-3.984-1.209-5.32q-0.534-3.411-1.062-6.823c-0.024-.828-0.048-1.647-0.075-2.476a8.287,8.287,0,0,0-1.739-2.929c0.053-.173.1-0.346,0.15-0.522,3.712-1.509,12.239-4.59,13.085-8.473-1.409-2.9-2.909-5.67-5.295-7.579q-1.89-1.54-3.78-3.074c-1.224-1.594-2.481-3.78-4.463-4.568-0.782-.06-1.562-0.1-2.343-0.157l-2.343-.6c-0.027-.078-0.053-0.148-0.075-0.23,0.1-.1.2-0.2,0.3-0.3a0.907,0.907,0,0,1-.225-0.749c-0.2.1-.4,0.2-0.607,0.305-0.049-.025-0.1-0.056-0.153-0.079,0.028-.62.055-1.253,0.077-1.877h0.151a0.485,0.485,0,0,1,.457.076c0.075,0.327.149,0.652,0.225,0.973V356.3a4.16,4.16,0,0,0-.3-2.1h0.3c0.1,0.051.2,0.095,0.3,0.151,0.373,0.782.018,1.572,0.225,2.322h0.151a12.33,12.33,0,0,1,.3-2.322c0.071-1.118-1.033-1.672.3-2.775h0.3c0.052,0.051.1,0.1,0.152,0.148a3.845,3.845,0,0,1-.452,1.424c0.048-.025.1-0.051,0.151-0.075q0.412-.591.831-1.2c-0.028-.652-0.052-1.3-0.076-1.949,0.656,0.173,1.311.349,1.963,0.522,0.011-.437.012-0.245,0.305-0.522-0.024-.054-0.051-0.1-0.075-0.152-1.818-1.209-3.861-1.1-5.219-2.847-1.78-2.3-1.842-5.966-4.158-7.727C525.951,338.449,524.464,338.6,523.241,338.005Zm9.3,12.3c0.15,0.147.3,0.305,0.452,0.453-0.037.479-.088,0.577-0.529,0.671a2.984,2.984,0,0,1-.225-1.124h0.3Zm-0.457,2.551c0.1,0.422.2,0.854,0.307,1.272h-0.229l-0.529-.375c0.077-.3.152-0.6,0.226-0.9h0.225ZM518.474,355.1c-0.073.224-.149,0.45-0.226,0.671a1.036,1.036,0,0,1-.3-0.671h0.527Zm0.456,0.145a11.94,11.94,0,0,1,.151,2.85,0.752,0.752,0,0,1-.607.082C518.436,357.329,518.287,355.565,518.93,355.247Zm18.6,12.9q2.046,1.734,4.086,3.453a9.869,9.869,0,0,1,2.42,1.572c-0.348,2.006-6.424,6.24-8.7,6.454-0.023-.022-0.05-0.051-0.075-0.079a17.287,17.287,0,0,1,.907-4.8q0.039-1.868.078-3.743c0.2-.878.744-1.672,0.982-2.854h0.3Zm-19.128,12.9a9.654,9.654,0,0,1,.9,2.252c-0.35-.151-0.7-0.3-1.057-0.45a2.617,2.617,0,0,1,.077-1.8H518.4Z"/>
  <path id="Shape_283_1" data-name="Shape 283 1" class="cls-2" d="M416.5,264.009c-6.288-.127-11.929,2.966-10.3,9.98,0.536,2.326,2.845,5.22,2.3,7.664-0.047.2-.1,0.409-0.158,0.617-2.815.77-5.631,1.53-8.448,2.3-1.251.947-.9,3.136-2,4.137-1.3,1.2-3.21,1.666-4.3,3.076-1.513,1.941-1.725,4.7-2.922,7.054-1.011,2-2.656,3.836-3.688,5.987-1.809,3.762-2.825,12.087-1.071,15.031a27.6,27.6,0,0,0,8.915,1.841c1.862,0.009,5.155-.984,5.988.154,0.215,0.712.423,1.433,0.622,2.149-0.244,1.06-1.3,1.036-1.7,1.845-0.509,1.042-1.892,10.934-1.845,11.81,0.1,1.632.942,3.69,0.769,5.676-0.36,3.672-.719,7.367-1.075,11.047a37.5,37.5,0,0,1,0,11.657v3.371q-1.536,2.153-3.076,4.3c-0.73,2.845,1.006,5.114,1.377,7.206,0.512,2.747-.322,4.714.474,7.369,0.456,0.713.919,1.432,1.383,2.14-0.308,1.232-.617,2.457-0.927,3.684-0.615,3,1.833,3.5,1.228,6.141-1.273,5.624-4.589,10.625,3.232,12.727,2.317-.946,3.6-3.172,4.154-5.824-0.054-1.127-.105-2.251-0.161-3.378a7.2,7.2,0,0,1-.307-3.063q1.7-2.532,3.38-5.069c-0.252-1.743-.512-3.477-0.764-5.218,0.38-1.808,3.857-11.4,3.535-12.581-0.561-1.484-1.128-2.961-1.688-4.445,1.659-1.043,4.076-1.284,6.146-1.992,0.107,0.1.208,0.2,0.307,0.31,0.5,3.68-2.848,7.424-3.69,11.045-0.932,4.006-1.075,17.666.151,20.554,0.466,0.514.926,1.021,1.385,1.532,0.46,1.088.656,3.014,0.926,3.837,0.957,2.912-1.347,5.278,0,7.365,3.506,0.611,12.952,5.336,15.218,1.379,0.159-.614.3-1.221,0.459-1.838-0.8-1.416-1.756-1.7-3.068-2.614s-2.045-2.725-2.924-3.676c1.073-4.586,3.514-8.333,4.614-12.889q1.617-12.653,3.226-25.313c-0.1-3.068-.209-6.146-0.308-9.208-0.809-4.951.063-9.07-.764-13.652-0.6-3.272-1.235-4.829-.313-7.981,0.662-2.238-1.975-7.327-2.611-9.045a67.475,67.475,0,0,1-1.847-7.675v-4.3c-0.408-1.97-1.993-4.258-1.388-7.061,0.514-1.069,1.029-2.15,1.545-3.219,0.306,0.106.609,0.2,0.923,0.309q1.921,4.681,3.836,9.352c1.461,3.87,1.785,7.312,3.383,10.747q3,5.606,6,11.2c0.7,2.415-.729,3.663-1.084,5.214-0.287,1.3,1.038,9.66,1.226,10.431a6.456,6.456,0,0,0,5.846-8.438c-0.613-.914-1.232-1.839-1.845-2.757-0.663-1.551-1.156-5.708-1.537-7.361q-0.847-7.441-1.689-14.888-2.154-5.52-4.3-11.049c-1.428-5.59-2.408-14.1-5.386-18.093-1.88-2.519-11.478-7.093-12.3-9.362,1.159-.106,1.971-0.3,2.462-1.07,0.206-2.718.4-5.424,0.617-8.136-0.252-1.038-1.327-1.566-1.078-2.458,0.149-.525-0.053-0.488.3-0.763v-0.154c1.436,0.05,2.875.1,4.307,0.154,0.05-.258.1-0.516,0.152-0.769-0.257-.31-0.511-0.609-0.767-0.918-1.482-.258-2.978-0.515-4.46-0.76-1.025-1.6-2.045-3.177-3.077-4.765A8.9,8.9,0,0,1,416.5,264.009Zm-18.456,46.8c0.842,1.432,1.556,1.855,1.85,4.146-0.1.1-.209,0.2-0.3,0.308-1.756-.128-4.482-1.459-4.924-2.923h0.31A5.269,5.269,0,0,1,398.047,310.806Zm45.512,38.966a4.3,4.3,0,0,1,.148,3.077,0.566,0.566,0,0,1-.3.3c-0.466.156-.927,0.308-1.389,0.464-0.1-.049-0.208-0.107-0.306-0.156,0.145-1.223.306-2.454,0.459-3.683h1.389Z"/>
  <path id="Shape_276_1" data-name="Shape 276 1" class="cls-2" d="M286.79,274.126c-0.121.524-.355,1.375-0.5,1.889a10.99,10.99,0,0,1-.606,2.134,0.732,0.732,0,0,1-.434.541,1.12,1.12,0,0,1-1.006.089,3.141,3.141,0,0,0-.416.91c-0.3.874-.761,3.236-0.8,3.464a0.428,0.428,0,0,0,.312.454,0.906,0.906,0,0,1,.78.8,2.306,2.306,0,0,1,.8-0.157c0.556,0.105,1.04,1.135,1.457,1.433a3,3,0,0,1,1.2.176,7.624,7.624,0,0,1,3.849.769,12.852,12.852,0,0,1,3.606,2.519c1.041,0.979,1.145,1.734,1.3,3.5a13.857,13.857,0,0,0,.242,3.517c0.278,1.643.692,3.69,0.884,5.283a22.692,22.692,0,0,1,.816,4.9c0.052,1.189-.122,3.272-0.018,4.146a19.749,19.749,0,0,0,.486,2.939c0.224,0.682,1.717,4.637,1.821,5.039a29.81,29.81,0,0,1,.8,3.585c0.208,1.278.228,2.327,0.4,2.852a16.932,16.932,0,0,1,1.16,3.587,8.849,8.849,0,0,0,1.024,3.359c0.225,1.242.468,2.536,0.5,2.746-0.052.157-.192,0.07-0.174,0.315,0,0.524,1.784,1.923,2.236,2.834a7.485,7.485,0,0,1,.1,1.889,5.157,5.157,0,0,1,.088,2.257c-0.07.335-.5,0.787-0.884,1.574a3.807,3.807,0,0,1-.972,1.139c-0.225.192-.311,0.629-0.589,0.454s-0.294-.648.122-1.558a1.713,1.713,0,0,0-.746.333c-0.242.123-.538,0.193-0.746,0.28a2.527,2.527,0,0,1-1.058.281,0.481,0.481,0,0,1-.242-0.525,0.684,0.684,0,0,1-.762.069,1.018,1.018,0,0,1-.156-0.489,0.6,0.6,0,0,1-.156-0.315,1.082,1.082,0,0,1,.536-1.049,1.128,1.128,0,0,1,.728-0.893,1.158,1.158,0,0,1,.052-1.19,3.072,3.072,0,0,1-.572-1.206,2.8,2.8,0,0,1-1.04-1.366,1.531,1.531,0,0,1-.4-0.979,0.444,0.444,0,0,0-.26-0.4,6.635,6.635,0,0,0-1.526.226,1.486,1.486,0,0,1-.9.053c-0.1-.632-0.3-1.732-0.486-2.449s-0.33-1.73-.52-2.291a18.114,18.114,0,0,0-1.127-2.328c-0.261.035-.227,2.083,0.068,3.745a17.3,17.3,0,0,1,.313,3.375c-0.139.543-.4,0.473-0.313,0.753a39.478,39.478,0,0,1,1.457,6.3c0.3,2.239.59,4.391,0.85,7.138s0.382,7.961.434,9.1,0.26,5.911.26,6.472,0.312,5.912.312,6.455,0.5,5.372.484,5.529a5.588,5.588,0,0,1-.814,1.3,2.814,2.814,0,0,1-.71.717c-0.018.506,0.018,1.591,0.052,2.291s0.1,3.341.068,4.461-0.24,3.779-.224,4.409,0.068,3.393.12,4.146,0.052,1.242.14,2.764a13.41,13.41,0,0,0,.5,2.537c0.244,1.451.418,1.382,0.642,2.973a3.067,3.067,0,0,0,.276,1.05,10.15,10.15,0,0,1,1.041,2.624,6.639,6.639,0,0,0,.642,1.418,17.865,17.865,0,0,1,1.542,2.169,3.533,3.533,0,0,0,.92.875,6.067,6.067,0,0,1,2.271,2.169,2.872,2.872,0,0,0,1.212,1.244,6.506,6.506,0,0,1,1.318,1.5,2.421,2.421,0,0,1,.156,1.207,1,1,0,0,1-.658.717c-0.642.4-1.4,0.332-2.808,0.175a31.911,31.911,0,0,1-5.306-1.173,2.777,2.777,0,0,1-1.23-1.294,23.348,23.348,0,0,0-1.162-2.765A9.45,9.45,0,0,0,294.7,411c-0.382-.377-0.79-0.626-0.833-0.157,0.044,0.346.242,1.1,0.33,1.47-0.086.139-.988,0.787-1.214,1-0.538-.279-1.991-1.138-2.219-1.312a8.712,8.712,0,0,0-.156-2.223,7.159,7.159,0,0,0-.884-2.222,4.138,4.138,0,0,1,.122-3.2,5.053,5.053,0,0,1,1.127-2.168,0.744,0.744,0,0,0,.52-0.577,25.374,25.374,0,0,0-.191-4.27c-0.156-.682-0.5-2.937-0.954-4.338s-0.8-2.658-1.04-3.726a10.227,10.227,0,0,0-.694-1.522,5.238,5.238,0,0,1-.918-1.627c-0.19-.787-0.556-3.028-0.642-3.5a2.225,2.225,0,0,0-.833.018c-0.38.034-2.878,0.366-3.64,0.507s-3.664.474-4.542,0.543a21.426,21.426,0,0,1-.121,2.642c-0.069.574-.256,2.624-0.417,3.866a15.526,15.526,0,0,0-.156,2.553,7.262,7.262,0,0,0,.59,2.59c0.416,0.892,1.091,2.17,1.421,2.695,0.138,0.566-.052,1.136.07,1.924,0.075,0.492.382,1.415,0.468,2.186a16.726,16.726,0,0,1,.676,2.434,22.677,22.677,0,0,0,.5,2.657,11.2,11.2,0,0,0,.989,1.907,2.145,2.145,0,0,1,.121,1.523,3.018,3.018,0,0,0-.26,1.346,9.432,9.432,0,0,1-.1,1.926,1.582,1.582,0,0,1-.762.926,2.865,2.865,0,0,1-1.856.192A10.292,10.292,0,0,1,276.8,414c-0.484-.333-2.08-1.332-2.288-2.03a1.4,1.4,0,0,0-.312-0.857c-0.382-.577-0.676-1.015-0.815-3.272-0.26-2.868-.97-4.217-1.04-5.319a5.028,5.028,0,0,1,.278-2.221,8.777,8.777,0,0,1,.276-1.558,1.374,1.374,0,0,0,.313-1.084,11.3,11.3,0,0,0-.329-2.606c-0.208-.666-1.255-3.511-1.544-4.235-0.554-1.381-.952-2.935-1.334-4.057a14.775,14.775,0,0,1-.659-2.87c-0.52-.053-0.5-0.051-0.936-0.122a23.923,23.923,0,0,1-3.346-.945,18.291,18.291,0,0,1-3.589-1.207c-0.088-1.627.07-3.831,0.052-4.794s0.016-2.134-.018-3.044,0.156-6.7.122-7.715-0.018-5.283-.018-5.511-0.018-5.88,0-7,0.068-4.809.052-5.108,0.068-6.948.1-7.331,0.19-3.235.208-3.743a20.881,20.881,0,0,0,.156-2.275,8.223,8.223,0,0,0-1.282-.49c-0.3-.315-0.052-0.929.312-2.414,0.225-1.242.556-2.9,0.59-3.6s0.1-2.432.1-3.219a40.333,40.333,0,0,1,.26-4.286,23.393,23.393,0,0,0,.5-4.06c-0.07-1.276-.294-4.477-0.538-6.7a48.091,48.091,0,0,0-1.385-7.3,1.766,1.766,0,0,0-.972-0.979,30.971,30.971,0,0,1-5.029-3.2c-2.269-1.314-2.5-1.209-3.345-2.346a8.482,8.482,0,0,1-1.04-.979,12.53,12.53,0,0,0-.9-1.278c-0.208-.174-0.866-0.646-1.647-1.154-1.128-.719-0.817-1.244-0.954-2.415a11.591,11.591,0,0,1-1.334-3.1,14.629,14.629,0,0,1-.208-2.677,18.714,18.714,0,0,1,.224-3.831,6.413,6.413,0,0,0,.33-1.207c0-.368-0.034-1.347,0-1.522a1.8,1.8,0,0,1,.174-0.856,1.621,1.621,0,0,1-.988-1.591,0.932,0.932,0,0,1,1.264-.753,2.147,2.147,0,0,0,.036-1.35,1.9,1.9,0,0,1,.4-1.345,1.693,1.693,0,0,0,.242-0.561,3.745,3.745,0,0,1,.66-1.1,1.563,1.563,0,0,1,.969-0.541,22.23,22.23,0,0,0,.262-3.412c0.016-.438.26-0.8,0.312-1.312a8.638,8.638,0,0,0,.07-2.765c-0.208-1.014-1.335-2.867-1.63-4.793-0.382-1.1-.8-1.417-0.955-2.065-0.242-.857-0.434-3.167-0.572-3.849-0.086-.84-0.034-1.276.452-1.224s0.592,0.33,1.04,1.172a16.207,16.207,0,0,1-.208-2.205,0.822,0.822,0,0,1,.849-0.4c0.053-.367.482-0.526,1-0.262,0.45,0.212.66,1.033,1.024,1.837a0.769,0.769,0,0,1,1.18.034,3.426,3.426,0,0,1,.849,1.3,13.376,13.376,0,0,1,.85,2.063,5.858,5.858,0,0,1,.746,1.855c0.517,0.868.64,1.1,0.918,1.5a2.338,2.338,0,0,0,.9.42,1.237,1.237,0,0,0,.208-0.594,13,13,0,0,1,.225-1.5,3.136,3.136,0,0,1,.451-1.591,2.863,2.863,0,0,1,.989-0.91,0.823,0.823,0,0,1,.744-0.053,1.426,1.426,0,0,1-.172,1.05,3.586,3.586,0,0,0-.018,1.154,4.832,4.832,0,0,1-.138,1.593,6.38,6.38,0,0,0-.036,1.994c0,0.612-.78,2.431-1.022,3.5a2.6,2.6,0,0,1-.538,1.277c-0.3.578-.054,0.942-0.677,2.484a35.633,35.633,0,0,0-.988,4.408,4.4,4.4,0,0,0,.086,1.367c0.145,0.286.35,0.052,0.366,0.349,0.05,0.682.348,4.338,0.364,4.81s0.137,2.2.068,3.131c0,1.155.036,2.869-.034,3.674a4.264,4.264,0,0,0,1.353,1.207,6.212,6.212,0,0,1,1.75.6c0.606-1.207,1.213-2.465,2.653-2.764a3.2,3.2,0,0,0,1.214-.228c0.52-.525,1.819-0.664,3.675-0.525a10.148,10.148,0,0,1,3.657.875,0.685,0.685,0,0,1,.834-0.105,2.092,2.092,0,0,1,.5-1.452,2.628,2.628,0,0,1,.278-0.349,1.21,1.21,0,0,1,.52-1.015,15.149,15.149,0,0,1-.38-3.026,1.3,1.3,0,0,1-.26.141,0.341,0.341,0,0,1-.244-0.281,2,2,0,0,1-.018-0.858,5.233,5.233,0,0,0,.036-1.033,2.984,2.984,0,0,0-.14-0.664,2.68,2.68,0,0,1-.276-1.365,0.766,0.766,0,0,0-.174-0.507,4.184,4.184,0,0,0-.07-0.6,0.772,0.772,0,0,0-.19-0.543,2.076,2.076,0,0,1-.434-1.312,7.55,7.55,0,0,1-.156-1.4,14.158,14.158,0,0,1,.1-1.889,1.453,1.453,0,0,1,.018-1.155,4.218,4.218,0,0,1,.728-1.5,6.1,6.1,0,0,1,.694-1.627c0.45-.666.172-1.539,1.68-1.942a3.479,3.479,0,0,1,1.232-.614,2.793,2.793,0,0,0,1.317-.226,2.648,2.648,0,0,1,1.752-.385,2.06,2.06,0,0,0,1.125.385,4.271,4.271,0,0,0,1.042-.3,3.04,3.04,0,0,1,1.144-.245,7.2,7.2,0,0,1,2.1.333,3.841,3.841,0,0,1,1.525.945,2.358,2.358,0,0,1,1.336.8c0.537,0.264.743-.051,1.057,0.875s0.642,0.894.572,1.575c0.1,1.329.086,0.558-.052,1.014a1.377,1.377,0,0,0-.121.857,5.244,5.244,0,0,1,.191,1.68c-0.07.648,0.068,0.561,0.19,0.7,0.226,0.053.331,0.192,0.087,1.189a2.762,2.762,0,0,1-.087,1.96,2.143,2.143,0,0,1-.26,1.329C286.911,273.512,286.91,273.6,286.79,274.126Z"/>
  <path id="MIN_normaal" data-name="MIN normaal" class="cls-3" d="M297.674,655.842V593.953h1.1l21.167,46.8h14.209l21.094-46.8h1.025v61.889h21.753V555.867H353.265l-25.708,56.47h-0.732l-25.635-56.47H276.141v99.975h21.533Zm124.219,0V555.867H397.65v99.975h24.243Zm41.748,0V596.077h0.879L504.8,655.842h19.043V555.867H501.434v59.18h-0.805l-40.21-59.18H441.3v99.975h22.339Z"/>
</svg>
